<svg width="259" height="49" viewBox="0 0 259 49" fill="none" xmlns="http://www.w3.org/2000/svg">
<path d="M76.5 0L81.7761 16.9291L98.8498 16.9291L85.0369 27.3918L90.313 44.3209L76.5 33.8582L62.687 44.3209L67.9631 27.3918L54.1502 16.9291L71.2239 16.9291L76.5 0Z" fill="#EFBF04"/>
<path d="M129.5 0L134.776 16.9291L151.85 16.9291L138.037 27.3918L143.313 44.3209L129.5 33.8582L115.687 44.3209L120.963 27.3918L107.15 16.9291L124.224 16.9291L129.5 0Z" fill="#EFBF04"/>
<path d="M182.5 0L187.776 16.9291L204.85 16.9291L191.037 27.3918L196.313 44.3209L182.5 33.8582L168.687 44.3209L173.963 27.3918L160.15 16.9291L177.224 16.9291L182.5 0Z" fill="#EFBF04"/>
<path d="M235.5 0L240.776 16.9291L257.85 16.9291L244.037 27.3918L249.313 44.3209L235.5 33.8582L221.687 44.3209L226.963 27.3918L213.15 16.9291L230.224 16.9291L235.5 0Z" fill="#EFBF04"/>
<path d="M23.5 0L28.7761 16.9291L45.8498 16.9291L32.0369 27.3918L37.313 44.3209L23.5 33.8582L9.68705 44.3209L14.9631 27.3918L1.15017 16.9291L18.2239 16.9291L23.5 0Z" fill="#EFBF04"/>
</svg>
